# xmcd
#
# Track frame offsets: 
#        150
#        12938
#        28436
#        44245
#        57834
#        74277
#        91845
#        104699
#        120327
#        137977
#        153480
#        167624
#
# Disc length: 2458 seconds
#
# Revision: 0
# Processed by: cddbd v1.5.2PL0 Copyright (c) Steve Scherf et al.
# Submitted via: ExactAudioCopy v0.95a5
#
DISCID=a809980c
DTITLE=Bradshaw, Woody - Lightning In A Bottle
DYEAR=2006
DGENRE=Country
TTITLE0=Baby, You're So Cool
TTITLE1=That Was Me
TTITLE2=White Cotton Dress
TTITLE3=Don't
TTITLE4=Here To Stay
TTITLE5=Saved By A Woman
TTITLE6=Friction
TTITLE7=The Last Thing You Do
TTITLE8=Our Song
TTITLE9=Living The Dream
TTITLE10=I Need To Remember This
TTITLE11=Lightning In A bottle
EXTD=
EXTT0=
EXTT1=
EXTT2=
EXTT3=
EXTT4=
EXTT5=
EXTT6=
EXTT7=
EXTT8=
EXTT9=
EXTT10=
EXTT11=
PLAYORDER=
